# xmcd
#
# Track frame offsets: 
#        150
#        15925
#        38162
#        51920
#        68000
#        75462
#        89120
#        107412
#        120552
#        142495
#        166125
#        173862
#        210977
#        228600
#        251190
#        268435
#        283377
#        304967
#
# Disc length: 4590 seconds
#
# Revision: 4
# Processed by: cddbd v1.4PL0 Copyright (c) Steve Scherf et al.
# Submitted via: ExactAudioCopy v0.95a1
#
DISCID=0a11ec12
DTITLE=Nina Simone - The Very Best of Nina Simone (Disk 2)
DYEAR=1900
DGENRE=Jazz
TTITLE0=I Think It's Going To Rain Today
TTITLE1=I Get Along Without You Very Well (Except Sometimes)
TTITLE2=Nobody's Fault But Mine
TTITLE3=Another Spring
TTITLE4=Compassion
TTITLE5=Seems I'm Never Tired Of Lovin' You
TTITLE6=I Shall Be Released
TTITLE7=To Be Young, Gifted, And Black
TTITLE8=Just Like Tom Thumb's Blues
TTITLE9=Suzanne
TTITLE10=My Father - Dialog
TTITLE11=Jelly Roll
TTITLE12=Tell It Like It Is
TTITLE13=Mr. Bojangles
TTITLE14=Here Comes The Sun
TTITLE15=Ooh Child
TTITLE16=Poppies
TTITLE17=22nd Century
EXTD=
EXTT0=
EXTT1=
EXTT2=
EXTT3=
EXTT4=
EXTT5=
EXTT6=
EXTT7=
EXTT8=
EXTT9=
EXTT10=
EXTT11=
EXTT12=
EXTT13=
EXTT14=
EXTT15=
EXTT16=
EXTT17=
PLAYORDER=
